<svg xmlns="http://www.w3.org/2000/svg" viewBox="0 0 128 128">
<defs>
<linearGradient id="b" x1="0" y1="0" x2="1" y2="1">
<stop offset="0%" stop-color="#54b7ff"/><stop offset="55%" stop-color="#0b7cff"/><stop offset="100%" stop-color="#0051b8"/>
</linearGradient>
<filter id="g" x="-60%" y="-60%" width="220%" height="220%">
<feGaussianBlur stdDeviation="4" result="blur"/><feMerge><feMergeNode in="blur"/><feMergeNode in="SourceGraphic"/></feMerge>
</filter>
</defs>
<rect x="18" y="18" width="92" height="92" rx="24" fill="#07111d" stroke="#0b7cff" stroke-width="2"/>
<g filter="url(#g)" fill="none" stroke="url(#b)" stroke-width="5" stroke-linecap="round" stroke-linejoin="round">

<path d="M30 70l8-20h52l8 20"/>
<path d="M34 70h60c8 0 12 5 12 12v8c0 5-4 9-9 9h-6"/>
<path d="M37 99h-6c-5 0-9-4-9-9v-8c0-7 5-12 12-12"/>
<circle cx="45" cy="99" r="7"/>
<circle cx="83" cy="99" r="7"/>
<circle cx="40" cy="27" r="4"/>
<circle cx="58" cy="21" r="4"/>
<circle cx="77" cy="27" r="4"/>
<circle cx="95" cy="38" r="4"/>
</g></svg>